<!-- Generated by IcoMoon.io -->
<svg version="1.1" xmlns="http://www.w3.org/2000/svg" width="32" height="32" viewBox="0 0 32 32">
<title>tableau-software_favicon_svg</title>
<path fill="#e8762d" d="M15.327 21.62h1.775v-4.84h4.464v-1.721h-4.464v-4.84h-1.775v4.84h-4.41v1.721h4.41z"></path>
<path fill="#c72037" d="M7.099 28.611h1.506v-4.302h3.98v-1.344h-3.98v-4.356h-1.506v4.356h-3.98v1.344h3.98z"></path>
<path fill="#5b879b" d="M23.824 13.069h1.506v-4.302h4.033v-1.291h-4.033v-4.356h-1.506v4.356h-3.98v1.291h3.98z"></path>
<path fill="#5c6692" d="M15.596 31.999h1.291v-3.065h2.743v-1.129h-2.743v-3.065h-1.291v3.065h-2.689v1.129h2.689z"></path>
<path fill="#eb9129" d="M7.152 13.069h1.398v-4.356h4.033v-1.237h-4.033v-4.356h-1.398v4.356h-4.033v1.237h4.033z"></path>
<path fill="#5c6692" d="M28.395 19.522h1.291v-3.012h2.743v-1.183h-2.743v-3.012h-1.291v3.012h-2.689v1.183h2.689z"></path>
<path fill="#1f457e" d="M23.824 28.611h1.506v-4.302h4.033v-1.344h-4.033v-4.356h-1.506v4.356h-3.98v1.344h3.98z"></path>
<path fill="#7199a6" d="M19.414 3.873v-0.914h-2.689v-2.958h-0.968v2.958h-2.689v0.914h2.689v2.958h0.968v-2.958zM2.689 19.307h0.968v-2.958h2.689v-0.914h-2.689v-2.904h-0.968v2.904h-2.689v0.968l2.689-0.054z"></path>
</svg>
