<!-- Generated by IcoMoon.io -->
<svg version="1.1" xmlns="http://www.w3.org/2000/svg" width="1024" height="1024" viewBox="0 0 1024 1024">
<title>tableau-software_favicon_svg</title>
<g id="icomoon-ignore">
</g>
<path fill="#276dc3" d="M512 802.987c-282.752 0-512-153.515-512-342.912s229.248-342.912 512-342.912 512 153.557 512 342.912-229.248 342.912-512 342.912zM590.379 251.221c-214.955 0-389.163 104.96-389.163 234.453s174.208 234.411 389.12 234.411 373.589-71.765 373.589-234.411-158.635-234.453-373.547-234.453zM779.733 648.277c19.47 5.893 35.721 12.169 51.4 19.468l-2.376-0.993c9.56 4.781 17.752 10.711 24.837 17.754l-0.005-0.005c4.437 4.699 8.224 10.081 11.174 15.955l0.176 0.386 122.155 205.909-197.419 0.085-92.288-173.355c-9.048-15.888-19.166-29.622-30.681-42.042l0.132 0.144c-5.8-6.444-14.122-10.521-23.398-10.666h-46.917v225.792l-174.635 0.043v-576.64h350.763c0 0 159.744 2.859 159.744 154.88 0.001 0.162 0.001 0.354 0.001 0.546 0 86.4-67.192 157.106-152.173 162.714l-0.489 0.026zM703.787 455.168l-105.771-0.043v98.048h105.771c0.185 0.003 0.403 0.004 0.622 0.004 26.722 0 48.384-21.662 48.384-48.384 0-0.542-0.009-1.081-0.027-1.618l0.002 0.078c0.046-0.765 0.072-1.659 0.072-2.559 0-25.214-20.44-45.653-45.653-45.653-1.196 0-2.382 0.046-3.555 0.136l0.156-0.010z"></path>
</svg>
