<!-- Generated by IcoMoon.io -->
<svg version="1.1" xmlns="http://www.w3.org/2000/svg" width="1038" height="1024" viewBox="0 0 1038 1024">
<title>tableau-software_favicon_svg</title>
<g id="icomoon-ignore">
</g>
<path fill="#e8762d" d="M490.454 691.833h56.789v-154.88h142.834v-55.069h-142.834v-154.88h-56.789v154.88h-141.113v55.069h141.113z"></path>
<path fill="#c72037" d="M227.158 915.549h48.185v-137.671h127.346v-43.022h-127.346v-139.392h-48.185v139.392h-127.346v43.022h127.346z"></path>
<path fill="#5b879b" d="M762.355 418.211h48.185v-137.671h129.067v-41.301h-129.067v-139.392h-48.185v139.392h-127.346v41.301h127.346z"></path>
<path fill="#5c6692" d="M499.059 1023.965h41.301v-98.091h87.765v-36.139h-87.765v-98.091h-41.301v98.091h-86.045v36.139h86.045z"></path>
<path fill="#eb9129" d="M228.879 418.211h44.743v-139.392h129.067v-39.581h-129.067v-139.392h-44.743v139.392h-129.067v39.581h129.067z"></path>
<path fill="#5c6692" d="M908.631 624.718h41.301v-96.37h87.765v-37.86h-87.765v-96.37h-41.301v96.37h-86.045v37.86h86.045z"></path>
<path fill="#1f457e" d="M762.355 915.549h48.185v-137.671h129.067v-43.022h-129.067v-139.392h-48.185v139.392h-127.346v43.022h127.346z"></path>
<path fill="#7199a6" d="M621.242 123.939v-29.255h-86.045v-94.649h-30.976v94.649h-86.045v29.255h86.045v94.649h30.976v-94.649zM86.045 617.835h30.976v-94.649h86.045v-29.255h-86.045v-92.928h-30.976v92.928h-86.045v30.976l86.045-1.721z"></path>
</svg>
